<svg width="40" height="40" viewBox="0 0 40 40" fill="none" xmlns="http://www.w3.org/2000/svg">
<g filter="url(#filter0_d)">
<path fill-rule="evenodd" clip-rule="evenodd" d="M33.4563 12.5523C26.1914 13.7411 17.3099 12.6921 6.5436 13.0107C6.3423 -4.04395 33.3221 -4.47129 33.4563 12.5523Z" fill="white"/>
<path fill-rule="evenodd" clip-rule="evenodd" d="M36 15.7924C35.0057 22.0082 27.7103 22.4278 25.0934 18.1233C22.1533 21.0137 16.8647 21.9616 14.1807 18.1233C11.6066 20.8272 4.2257 22.117 4 15.7924C5.72017 13.3372 7.22074 16.5694 9.09341 16.717C10.5738 15.2921 12.3945 14.5605 14.2488 14.6454C16.1032 14.7303 17.8779 15.6265 19.2741 17.1832C22.074 16.616 22.1472 14.0753 24.3614 13.9355C26.899 13.749 28.1494 17.1133 30.1807 17.1832C32.6207 17.2687 33.7186 12.8632 36 15.7924Z" fill="white"/>
<path fill-rule="evenodd" clip-rule="evenodd" d="M33.4564 26.4445C33.4564 28.6278 32.8159 29.9565 32.7305 31.9999H8.00153C7.24006 30.313 6.86201 28.3895 6.90965 26.4445C15.0408 26.5455 24.3736 26.3823 33.4564 26.4445Z" fill="white"/>
<path fill-rule="evenodd" clip-rule="evenodd" d="M32.7305 23.6398C31.907 26.1806 28.7168 25.0306 26.5452 25.0306H12.729C10.7099 25.0306 7.62946 26.1806 6.90967 23.6398C7.04997 21.1534 9.91691 22.3111 11.2711 22.2567C15.9314 22.0625 24.0809 22.3577 27.6371 22.2567C29.8636 22.2179 32.517 20.8115 32.7305 23.6398Z" fill="white"/>
</g>
<defs>
<filter id="filter0_d" x="0" y="0" width="40" height="39.9999" filterUnits="userSpaceOnUse" color-interpolation-filters="sRGB">
<feFlood flood-opacity="0" result="BackgroundImageFix"/>
<feColorMatrix in="SourceAlpha" type="matrix" values="0 0 0 0 0 0 0 0 0 0 0 0 0 0 0 0 0 0 127 0"/>
<feOffset dy="4"/>
<feGaussianBlur stdDeviation="2"/>
<feColorMatrix type="matrix" values="0 0 0 0 0 0 0 0 0 0 0 0 0 0 0 0 0 0 0.25 0"/>
<feBlend mode="normal" in2="BackgroundImageFix" result="effect1_dropShadow"/>
<feBlend mode="normal" in="SourceGraphic" in2="effect1_dropShadow" result="shape"/>
</filter>
</defs>
</svg>
