<svg width="40" height="40" viewBox="0 0 40 40" fill="none" xmlns="http://www.w3.org/2000/svg">
<g filter="url(#filter0_d)">
<path d="M32.1279 26.1373C32.4121 26.1373 32.69 26.2301 32.9264 26.404C33.1627 26.5779 33.3469 26.8251 33.4557 27.1142C33.5645 27.4034 33.593 27.7216 33.5375 28.0286C33.482 28.3355 33.3452 28.6175 33.1442 28.8388C32.9432 29.0602 32.6871 29.2109 32.4083 29.2719C32.1295 29.333 31.8405 29.3017 31.5779 29.1819C31.3152 29.0621 31.0908 28.8593 30.9328 28.599C30.7749 28.3388 30.6906 28.0328 30.6906 27.7198C30.692 27.3006 30.8438 26.8989 31.1131 26.6025C31.3823 26.306 31.7471 26.1388 32.1279 26.1373ZM12.5355 26.1373C12.8198 26.1373 13.0977 26.2301 13.334 26.404C13.5704 26.5779 13.7546 26.8251 13.8634 27.1142C13.9722 27.4034 14.0006 27.7216 13.9452 28.0286C13.8897 28.3355 13.7528 28.6175 13.5518 28.8388C13.3508 29.0602 13.0947 29.2109 12.8159 29.2719C12.5371 29.333 12.2481 29.3017 11.9855 29.1819C11.7229 29.0621 11.4984 28.8593 11.3405 28.599C11.1826 28.3388 11.0983 28.0328 11.0983 27.7198C11.0996 27.3006 11.2515 26.8989 11.5207 26.6025C11.79 26.306 12.1548 26.1388 12.5355 26.1373ZM22.0878 4.86281e-05C21.82 -0.00125343 21.5526 0.0235946 21.2888 0.0743125C21.2888 0.0743125 23.3642 6.9757 17.2053 12.7288C17.2053 12.7288 14.8185 14.854 9.1629 15.5853C9.1629 15.5853 5.33887 16.4023 5.33887 21.8697C5.34915 22.0615 5.3955 22.2489 5.475 22.4201C5.55449 22.5912 5.66539 22.7422 5.80066 22.8637L4.01577 24.9776C3.87567 25.2518 4.6851 26.0231 5.81103 26.6915C6.93697 27.3599 7.96951 27.6913 8.1096 27.4113L8.88272 23.9835L9.21998 23.3379H10.6261L10.4808 24.0463C9.78331 24.5147 9.23714 25.2125 8.91949 26.0413C8.60184 26.87 8.52879 27.7877 8.71067 28.6647C8.89254 29.5416 9.32016 30.3335 9.93304 30.9282C10.5459 31.523 11.3131 31.8906 12.1261 31.9792C12.9391 32.0677 13.7568 31.8726 14.4636 31.4215C15.1704 30.9705 15.7306 30.2862 16.0649 29.4654C16.3993 28.6447 16.4909 27.729 16.3268 26.8478C16.1627 25.9666 15.7513 25.1645 15.1506 24.5548L17.4128 23.2579H27.4944L29.5699 24.4463C28.9337 25.0492 28.4916 25.8624 28.3096 26.7646C28.1276 27.6667 28.2154 28.6096 28.5599 29.4523C28.9044 30.2951 29.4871 30.9926 30.2211 31.4408C30.9551 31.8891 31.8011 32.064 32.6328 31.9395C33.4645 31.815 34.2374 31.3977 34.836 30.7499C35.4347 30.1022 35.8271 29.2587 35.9548 28.3452C36.0824 27.4318 35.9383 26.4974 35.5441 25.6814C35.15 24.8655 34.5267 24.2118 33.7675 23.8178L33.6533 23.2465H33.7312C33.9725 23.1206 34.1755 22.9202 34.3155 22.6697C34.4555 22.4192 34.5265 22.1294 34.5198 21.8354V0.108598H27.6345C27.3217 0.0420223 26.9981 0.0798711 26.705 0.217296C26.4119 0.354721 26.1628 0.585446 25.9897 0.879857C24.7449 0.341019 23.4248 0.0433627 22.0878 4.86281e-05Z" fill="white"/>
</g>
<defs>
<filter id="filter0_d" x="0" y="0" width="40" height="40" filterUnits="userSpaceOnUse" color-interpolation-filters="sRGB">
<feFlood flood-opacity="0" result="BackgroundImageFix"/>
<feColorMatrix in="SourceAlpha" type="matrix" values="0 0 0 0 0 0 0 0 0 0 0 0 0 0 0 0 0 0 127 0"/>
<feOffset dy="4"/>
<feGaussianBlur stdDeviation="2"/>
<feColorMatrix type="matrix" values="0 0 0 0 0 0 0 0 0 0 0 0 0 0 0 0 0 0 0.25 0"/>
<feBlend mode="normal" in2="BackgroundImageFix" result="effect1_dropShadow"/>
<feBlend mode="normal" in="SourceGraphic" in2="effect1_dropShadow" result="shape"/>
</filter>
</defs>
</svg>
